<svg height="512" viewBox="0 0 128 128" width="512" xmlns="http://www.w3.org/2000/svg" xmlns:xlink="http://www.w3.org/1999/xlink"><linearGradient id="a" gradientUnits="userSpaceOnUse" x1="107" x2="21" y1="129.371" y2="43.37"><stop offset="0" stop-color="#979fef"/><stop offset="1" stop-color="#ff8fb8"/></linearGradient><path d="m128 100.668a18.648 18.648 0 0 1 -18.626 18.632h-90.748a18.626 18.626 0 0 1 -10.087-34.29l48.711-31.15v-16.592a1.749 1.749 0 0 1 1.75-1.75h5a6.657 6.657 0 0 0 0-13.313 1.75 1.75 0 0 1 0-3.5 10.157 10.157 0 0 1 0 20.313h-3.25v15.8a1.752 1.752 0 0 1 -.808 1.475l-49.513 31.662a15.127 15.127 0 0 0 8.2 27.84h90.748a15.128 15.128 0 0 0 8.192-27.844l-49.511-31.658a1.752 1.752 0 0 1 -.808-1.475v-8.241a1.748 1.748 0 0 1 1.274-1.683 16.658 16.658 0 1 0 -21.089-17.783h8.159a1.75 1.75 0 0 1 0 3.5h-10a1.749 1.749 0 0 1 -1.75-1.75 20.156 20.156 0 1 1 26.906 18.993v6.006l48.706 31.146a18.556 18.556 0 0 1 8.544 15.662zm-112.155-4.307 48.155-30.792 6.524 4.172a1.75 1.75 0 0 0 1.885-2.949l-7.467-4.774a1.746 1.746 0 0 0 -1.884 0l-49.1 31.4a8.627 8.627 0 0 0 4.668 15.882h90.748a8.627 8.627 0 0 0 4.666-15.883l-6.349-4.059a1.75 1.75 0 1 0 -1.884 2.949l6.342 4.055a5.127 5.127 0 0 1 -2.775 9.438h-90.748a5.127 5.127 0 0 1 -2.781-9.434zm75.213-13.49a1.75 1.75 0 1 0 1.884-2.949l-5.784-3.7a1.75 1.75 0 1 0 -1.885 2.949z" fill="url(#a)"/></svg>